<?xml version="1.0" encoding="UTF-8"?>
<!-- Created with Inkscape (http://www.inkscape.org/) -->
<svg width="210mm" height="297mm" version="1.1" viewBox="0 0 210 297" xmlns="http://www.w3.org/2000/svg" xmlns:cc="http://creativecommons.org/ns#" xmlns:dc="http://purl.org/dc/elements/1.1/" xmlns:rdf="http://www.w3.org/1999/02/22-rdf-syntax-ns#" xmlns:xlink="http://www.w3.org/1999/xlink">
 <defs>
  <linearGradient id="linearGradient829" x1="75.905" x2="118.61" y1="143.05" y2="206.72" gradientUnits="userSpaceOnUse">
   <stop stop-color="#b6b9b6" offset="0"/>
   <stop stop-color="#c9edeb" stop-opacity="0" offset="1"/>
  </linearGradient>
 </defs>
 <metadata>
  <rdf:RDF>
   <cc:Work rdf:about="">
    <dc:format>image/svg+xml</dc:format>
    <dc:type rdf:resource="http://purl.org/dc/dcmitype/StillImage"/>
    <dc:title/>
   </cc:Work>
  </rdf:RDF>
 </metadata>
 <g>
  <path d="m61.205 186.08c0.66817-0.26726 7.3499-17.506 8.1517-18.174 0.80181-0.66818 6.5481-24.856 6.5481-24.856 9.9656-14.39 28.52-7.4376 30.201-0.66817l6.4145 22.852 9.3544 19.912c-2.3717 7.6993-3.6375 16.592-19.11 10.156-8.9552-0.18661-14.834 7.7943-25.524-1.47-11.978 0.19286-9.5107 6.2011-16.036-7.7508z" fill="url(#linearGradient829)" stroke="#000" stroke-width=".26458px"/>
  <g>
   <path d="m86.425 154.45a2.6059 3.675 0 0 1-2.6221 3.6182 2.6059 3.675 0 0 1-2.5894-3.6647 2.6059 3.675 0 0 1 2.575-3.6849 2.6059 3.675 0 0 1 2.6362 3.5977" stroke="#0a0000" stroke-width=".20135" style="paint-order:normal"/>
   <path d="m103.36 154.23a5.6795 7.8176 0 0 1-5.7147 7.6969 5.6795 7.8176 0 0 1-5.6435-7.7958 5.6795 7.8176 0 0 1 5.6121-7.8387 5.6795 7.8176 0 0 1 5.7456 7.6532" stroke="#0a0000" stroke-width=".20135" style="paint-order:normal"/>
   <path d="m77.154 166.79c9.6826 3.886 14.403 8.2398 28.348-0.56696-4.6451 9.1088-6.7665 13.247-16.631 13.796-6.74-1.9804-11.978-5.248-11.717-13.229z" stroke="#000" stroke-width=".26458px"/>
  </g>
  <path d="m88.872 180.02-2.0789-0.8032c-1.8966-0.68174-2.9644-0.97466-4.1105-2.0316 0.94513-1.4778 2.4606-2.024 3.6853-2.4568 2.0908-0.60079 4.6462-0.0713 6.2839 0.47252 1.8079 0.43913 3.7513 1.6839 4.9609 2.3624l-1.3229 0.8032c-1.6134 0.62931-3.1108 1.2692-7.4178 1.6536z" fill="#a30000"/>
 </g>
</svg>
